<svg width="48" height="48" viewBox="0 0 48 48" fill="none" xmlns="http://www.w3.org/2000/svg">
<path d="M9 48H39C41.2091 48 43 46.2091 43 44V13.4142C43 13.149 42.8946 12.8946 42.7071 12.7071L30.2929 0.292893C30.1054 0.105357 29.851 0 29.5858 0H9C6.79086 0 5 1.79086 5 4V44C5 46.2091 6.79086 48 9 48Z" fill="#EEEEEE"/>
<path d="M30 9V0L43 13H34C31.7909 13 30 11.2091 30 9Z" fill="#E1E1E1"/>
<rect width="28" height="15" transform="translate(15 23)" fill="#1664D9"/>
<path d="M18.81 34H21.105C23.04 34 24.435 32.605 24.435 30.85C24.435 29.095 23.04 27.7 21.105 27.7H18.81V34ZM20.16 32.74V28.96H21.105C22.23 28.96 23.04 29.77 23.04 30.85C23.04 31.93 22.23 32.74 21.105 32.74H20.16ZM28.6629 34.135C30.5979 34.135 32.0829 32.65 32.0829 30.85C32.0829 29.05 30.5979 27.565 28.6629 27.565C26.7279 27.565 25.2429 29.05 25.2429 30.85C25.2429 32.65 26.7279 34.135 28.6629 34.135ZM28.6629 32.875C27.5379 32.875 26.6379 31.975 26.6379 30.85C26.6379 29.725 27.5379 28.825 28.6629 28.825C29.7879 28.825 30.6879 29.725 30.6879 30.85C30.6879 31.975 29.7879 32.875 28.6629 32.875ZM36.3094 34.135C38.1094 34.135 39.0094 32.875 39.0094 32.875L38.1094 31.975C38.1094 31.975 37.4794 32.875 36.3094 32.875C35.1844 32.875 34.2844 31.975 34.2844 30.85C34.2844 29.725 35.1844 28.825 36.3094 28.825C37.4344 28.825 38.0644 29.725 38.0644 29.725L38.9644 28.825C38.9644 28.825 38.0644 27.565 36.3094 27.565C34.3744 27.565 32.8894 29.05 32.8894 30.85C32.8894 32.65 34.3744 34.135 36.3094 34.135Z" fill="white"/>
</svg>
