<svg width="40" height="40" viewBox="0 0 40 40" fill="none" xmlns="http://www.w3.org/2000/svg">
<path fill-rule="evenodd" clip-rule="evenodd" d="M37 20C37 26.5649 35.6626 30.6592 33.1609 33.1609C30.6592 35.6626 26.5649 37 20 37C13.4351 37 9.3408 35.6626 6.83908 33.1609C4.33735 30.6592 3 26.5649 3 20C3 13.4351 4.33735 9.3408 6.83908 6.83908C9.3408 4.33735 13.4351 3 20 3C26.5649 3 30.6592 4.33735 33.1609 6.83908C35.6626 9.3408 37 13.4351 37 20ZM39 20C39 33.5337 33.5337 39 20 39C6.4663 39 1 33.5337 1 20C1 6.4663 6.4663 1 20 1C33.5337 1 39 6.4663 39 20ZM20 12C17.7909 12 16 13.7909 16 16C16 18.2091 17.7909 20 20 20C22.2091 20 24 18.2091 24 16C24 13.7909 22.2091 12 20 12ZM18 16C18 14.8954 18.8954 14 20 14C21.1046 14 22 14.8954 22 16C22 17.1046 21.1046 18 20 18C18.8954 18 18 17.1046 18 16ZM15.6247 20.2191C15.1935 19.8741 14.5642 19.944 14.2192 20.3753C13.8742 20.8065 13.9441 21.4358 14.3753 21.7808C14.8528 22.1628 15.6707 22.7055 16.6408 23.1567C17.1126 23.3761 17.64 23.5832 18.1971 23.7372L16.2 26.4C15.8686 26.8418 15.9582 27.4686 16.4 27.8C16.8418 28.1314 17.4686 28.0418 17.8 27.6L20 24.6667L22.2 27.6C22.5314 28.0418 23.1582 28.1314 23.6 27.8C24.0418 27.4686 24.1314 26.8418 23.8 26.4L21.8029 23.7372C22.36 23.5832 22.8875 23.3761 23.3593 23.1567C24.3294 22.7055 25.1473 22.1628 25.6247 21.7808C26.056 21.4358 26.1259 20.8065 25.7809 20.3753C25.4359 19.944 24.8066 19.8741 24.3753 20.2191C24.0194 20.5038 23.3373 20.9612 22.5158 21.3433C21.686 21.7292 20.7958 22 20 22C19.2043 22 18.3141 21.7292 17.4843 21.3433C16.6628 20.9612 15.9807 20.5038 15.6247 20.2191Z" fill="#333333"/>
</svg>
