<svg width="48" height="48" viewBox="0 0 48 48" fill="none" xmlns="http://www.w3.org/2000/svg">
<path d="M9 48H39C41.2091 48 43 46.2091 43 44V13.4142C43 13.149 42.8946 12.8946 42.7071 12.7071L30.2929 0.292893C30.1054 0.105357 29.851 0 29.5858 0H9C6.79086 0 5 1.79086 5 4V44C5 46.2091 6.79086 48 9 48Z" fill="#EEEEEE"/>
<path d="M30 9V0L43 13H34C31.7909 13 30 11.2091 30 9Z" fill="#E1E1E1"/>
<rect width="25" height="15" transform="translate(18 23)" fill="#F2360C"/>
<path d="M21.81 34H23.16V31.93H24.465C25.815 31.93 26.715 31.03 26.715 29.815C26.715 28.6 25.815 27.7 24.465 27.7H21.81V34ZM23.16 30.67V28.96H24.42C24.96 28.96 25.32 29.32 25.32 29.815C25.32 30.31 24.96 30.67 24.42 30.67H23.16ZM27.9272 34H30.2222C32.1572 34 33.5522 32.605 33.5522 30.85C33.5522 29.095 32.1572 27.7 30.2222 27.7H27.9272V34ZM29.2772 32.74V28.96H30.2222C31.3472 28.96 32.1572 29.77 32.1572 30.85C32.1572 31.93 31.3472 32.74 30.2222 32.74H29.2772ZM34.7651 34H36.1151V31.705H38.6801V30.445H36.1151V28.96H39.4001V27.7H34.7651V34Z" fill="white"/>
</svg>
