<svg width="40" height="40" viewBox="0 0 40 40" fill="none" xmlns="http://www.w3.org/2000/svg">
<path fill-rule="evenodd" clip-rule="evenodd" d="M37 20C37 26.5649 35.6626 30.6592 33.1609 33.1609C30.6592 35.6626 26.5649 37 20 37C13.4351 37 9.3408 35.6626 6.83908 33.1609C4.33735 30.6592 3 26.5649 3 20C3 13.4351 4.33735 9.3408 6.83908 6.83908C9.3408 4.33735 13.4351 3 20 3C26.5649 3 30.6592 4.33735 33.1609 6.83908C35.6626 9.3408 37 13.4351 37 20ZM39 20C39 33.5337 33.5337 39 20 39C6.4663 39 1 33.5337 1 20C1 6.4663 6.4663 1 20 1C33.5337 1 39 6.4663 39 20ZM11.6225 19.0409L17.8176 22.0771L17.9193 22.1787L20.9652 28.3786C21.1641 28.7833 21.5885 29.0281 22.0385 28.9974C22.4879 28.9667 22.8753 28.6671 23.0175 28.2395L27.943 13.4628L27.9742 13.3395L27.9758 13.3309C27.9828 13.3103 27.9828 13.3103 27.9945 13.2098L27.9945 13.2098L27.9945 13.2097V13.2097L28 13.0963C27.9986 13.0192 27.9939 12.9799 27.9733 12.8703L27.9528 12.7944L27.9448 12.768L27.8908 12.6325L27.8811 12.6132L27.8642 12.5808C27.7969 12.4659 27.7443 12.395 27.6749 12.3257C27.6048 12.2555 27.5323 12.2017 27.4546 12.1557L27.4081 12.1299L27.3774 12.1139L27.2354 12.0562L27.2078 12.0477L27.188 12.0418C27.0202 12.0056 26.9724 12 26.8899 12L26.9597 12.0028L26.7995 12.0043L26.7797 12.0064C26.7357 12.0117 26.7121 12.0146 26.6887 12.0188C26.6618 12.0238 26.6353 12.0306 26.578 12.0452L26.6471 12.0281L26.5366 12.0571L11.7597 16.9883C11.3321 17.1311 11.0324 17.5187 11.0025 17.9688C10.9725 18.4183 11.2176 18.8419 11.6225 19.0409ZM13.7404 18.1518L18.3603 20.416L24.0724 14.7039L13.7404 18.1518ZM21.8529 26.261L19.583 21.6407L25.2979 15.9257L21.8529 26.261Z" fill="#333333"/>
</svg>
