<svg width="40" height="40" viewBox="0 0 40 40" fill="none" xmlns="http://www.w3.org/2000/svg">
<path fill-rule="evenodd" clip-rule="evenodd" d="M37 20C37 26.5649 35.6626 30.6592 33.1609 33.1609C30.6592 35.6626 26.5649 37 20 37C13.4351 37 9.3408 35.6626 6.83908 33.1609C4.33735 30.6592 3 26.5649 3 20C3 13.4351 4.33735 9.3408 6.83908 6.83908C9.3408 4.33735 13.4351 3 20 3C26.5649 3 30.6592 4.33735 33.1609 6.83908C35.6626 9.3408 37 13.4351 37 20ZM39 20C39 33.5337 33.5337 39 20 39C6.4663 39 1 33.5337 1 20C1 6.4663 6.4663 1 20 1C33.5337 1 39 6.4663 39 20ZM12.3858 15.2105C12.8214 14.8718 13.4493 14.9502 13.7881 15.3857L19.0066 22.0929V22.0047V16.0106C19.0066 15.459 19.4539 15.0117 20.0058 15.0117C20.5577 15.0117 21.0051 15.459 21.0051 16.0106V19.8324L26.3504 15.2522C26.7694 14.8932 27.4002 14.9417 27.7594 15.3606C28.1185 15.7794 28.07 16.4101 27.651 16.7691L24.1164 19.7978L27.781 24.377C28.1257 24.8078 28.0559 25.4364 27.6249 25.7811C27.194 26.1257 26.5651 26.0559 26.2204 25.6251L22.5981 21.0987L21.0051 22.4637V25.001C21.0051 25.5527 20.5577 25.9999 20.0058 25.9999C19.7294 25.9999 19.4793 25.8878 19.2984 25.7065C19.2655 25.6745 19.2344 25.6399 19.2054 25.6026L12.2105 16.6123C11.8717 16.1768 11.9502 15.5492 12.3858 15.2105Z" fill="#333333"/>
</svg>
